<svg width="432" height="432" viewBox="0 0 432 432" fill="none" xmlns="http://www.w3.org/2000/svg">
<path d="M216 432C335.294 432 432 335.294 432 216C432 96.7065 335.294 0 216 0C96.7066 0 0 96.7065 0 216C0 335.294 96.7066 432 216 432Z" fill="#91A11A"/>
<path d="M147.4 147.9C195 96.6002 240 94.2002 282.1 148C282.5 148.6 282.5 149.4 282 149.9C238.7 193.8 193.8 191.1 147.6 150C146.9 149.4 146.9 148.5 147.4 147.9Z" fill="white"/>
<path d="M234.9 275.4C221.5 281.3 208 281.3 194.6 275.4C193.8 275.1 193.5 274.2 193.9 273.4L203.5 254.5C203.8 253.9 204.5 253.6 205.2 253.8C211.5 255.7 217.9 255.7 224.2 253.8C224.9 253.6 225.6 253.9 225.9 254.5L235.5 273.4C236 274.1 235.7 275 234.9 275.4Z" fill="white"/>
<path d="M248.9 306.4C226.5 317.3 203.7 316.6 180.6 306.4C179.9 306.1 179.5 305.2 179.9 304.4L189.2 285.8C189.5 285.1 190.3 284.8 191 285.1C207.3 291.1 223.5 291.8 238.5 285.2C239.2 284.9 240 285.2 240.4 285.9L249.6 304.5C249.9 305.2 249.6 306.1 248.9 306.4Z" fill="white"/>
<path d="M226 204.6C238.2 234.4 253.3 277.4 265.8 320.8C266.5 323.3 269.5 324.2 271.5 322.6C323.7 280.2 332 220.5 296.9 166.8C295.6 164.8 292.8 164.6 291.2 166.4C275.3 183.9 253.9 194.3 228.6 199.7C226.4 200.2 225.2 202.6 226 204.6Z" fill="white"/>
<path d="M206 204.6C193.8 234.4 178.7 277.4 166.2 320.8C165.5 323.3 162.5 324.2 160.5 322.6C108.3 280.2 100 220.5 135.1 166.8C136.4 164.8 139.2 164.6 140.8 166.4C156.7 183.9 178.1 194.3 203.4 199.7C205.6 200.2 206.8 202.6 206 204.6Z" fill="white"/>
</svg>
