<svg width="432" height="432" viewBox="0 0 432 432" fill="none" xmlns="http://www.w3.org/2000/svg">
<path d="M216 432C335.294 432 432 335.294 432 216C432 96.7065 335.294 0 216 0C96.7066 0 0 96.7065 0 216C0 335.294 96.7066 432 216 432Z" fill="#FABF00"/>
<path d="M211.1 105.7C187.4 136.8 165.4 172.8 144.6 212.4C144.1 213.3 144.4 214.5 145.2 215.1C167.2 232.6 189.1 248.8 210.8 262.9C211.6 263.4 212 264.5 211.7 265.4L192.2 324.3C191.5 326.4 194.1 328.1 195.7 326.6L277.6 250.3C278.5 249.5 278.5 248 277.6 247.2C264.7 234.6 252.1 223.7 240.1 215C239.1 214.3 238.9 212.9 239.6 211.9L287 149.9C287.8 148.9 287.5 147.4 286.4 146.7L213.7 105.3C212.9 104.6 211.7 104.9 211.1 105.7Z" fill="white"/>
</svg>
