<svg width="432" height="432" viewBox="0 0 432 432" fill="none" xmlns="http://www.w3.org/2000/svg">
<path d="M216 432C335.294 432 432 335.294 432 216C432 96.7065 335.294 0 216 0C96.7065 0 0 96.7065 0 216C0 335.294 96.7065 432 216 432Z" fill="#E62828"/>
<path d="M176.7 316.8C152.4 302.8 138.6 287.7 135 246.2C135 246.1 135 246 135 245.9C138.7 217.6 134.6 213.1 184.3 166.8L184.4 166.7C199.8 155.5 209.2 129.4 188.9 109.2C188 108.3 188.6 106.8 189.8 106.7C209.3 105.3 229.1 109.1 241.1 130.6C241.2 130.7 241.2 130.8 241.2 131C245.7 147.2 241.1 158.4 235 174.6C226.2 200.4 228.7 210.9 237.5 216C238.7 216.7 240 215.6 239.6 214.3C230.6 186.6 244 176.9 267.2 174C268.5 173.8 269.4 175.4 268.4 176.4C258.1 187.3 267.1 208.9 288.1 231.2C288.2 231.3 288.3 231.4 288.3 231.5C319 287.7 260.9 328.3 212.5 325.5C211 325.4 210.6 323.5 211.9 322.8C228.4 313.9 256 290.7 231.1 270C231 269.9 231 269.9 230.9 269.9C207.9 256.2 190 236.9 188.2 205.1C188.1 203.8 186.4 203.2 185.6 204.3C157.4 240.8 159 279.5 178.5 315.1C179.4 316.2 178 317.6 176.7 316.8Z" fill="white"/>
</svg>
