<svg width="432" height="432" viewBox="0 0 432 432" fill="none" xmlns="http://www.w3.org/2000/svg">
<path d="M216 432C335.294 432 432 335.294 432 216C432 96.7065 335.294 0 216 0C96.7065 0 0 96.7065 0 216C0 335.294 96.7065 432 216 432Z" fill="#915121"/>
<path d="M313.5 268.8L312.7 268.3L311.9 268.8C311.5 269 311.2 269.2 310.9 269.3L224.4 302.9C222.1 303.8 219.6 304.3 217.1 304.3C214.7 304.3 212.2 303.9 210 303L121.1 269.3C120.8 269.2 120.4 269 120.1 268.8L119.3 268.3L118.5 268.8C115.8 270.5 114.2 273.6 114.6 276.9C114.9 280.2 117 282.9 120.1 284L209 317.7C211.6 318.7 214.4 319.2 217.2 319.2C220.1 319.2 222.9 318.7 225.5 317.6L312 284C315.1 282.8 317.1 280.1 317.4 276.8C317.7 273.6 316.2 270.5 313.5 268.8Z" fill="white"/>
<path d="M120.6 249.8L209.5 283.5C214.5 285.4 220 285.4 225 283.4L311.5 249.8C317.5 247.5 317.6 239 311.6 236.6L225.3 201.5C220.1 199.4 214.4 199.4 209.2 201.4L120.5 236.5C114.5 238.9 114.6 247.5 120.6 249.8Z" fill="white"/>
<path d="M167.4 151.9H131.2C130.4 151.9 129.8 151.3 129.8 150.5V114.3C129.8 113.5 130.4 112.9 131.2 112.9H167.4C168.2 112.9 168.8 113.5 168.8 114.3V150.5C168.8 151.3 168.2 151.9 167.4 151.9Z" fill="white"/>
<path d="M293 169.7H262.7C261.9 169.7 261.3 169.1 261.3 168.3V138C261.3 137.2 261.9 136.6 262.7 136.6H293C293.8 136.6 294.4 137.2 294.4 138V168.3C294.5 169 293.8 169.7 293 169.7Z" fill="white"/>
<path d="M203.6 185.1H178C177.2 185.1 176.6 184.5 176.6 183.7V158.1C176.6 157.3 177.2 156.7 178 156.7H203.6C204.4 156.7 205 157.3 205 158.1V183.7C205 184.4 204.4 185.1 203.6 185.1Z" fill="white"/>
</svg>
