<svg width="432" height="432" viewBox="0 0 432 432" fill="none" xmlns="http://www.w3.org/2000/svg">
<path d="M216 432C335.294 432 432 335.294 432 216C432 96.7065 335.294 0 216 0C96.7065 0 0 96.7065 0 216C0 335.294 96.7065 432 216 432Z" fill="#9FA19E"/>
<path d="M322.4 167.9C327.9 161.1 331.2 152.5 331.2 143.1C331.2 121.3 313.6 103.7 291.8 103.7C281.5 103.7 272.1 107.7 265.1 114.2C250.1 107.5 233.5 103.7 216 103.7C198.5 103.7 181.9 107.4 166.9 114.2C159.9 107.7 150.5 103.7 140.2 103.7C118.4 103.7 100.8 121.3 100.8 143.1C100.8 152.5 104.1 161.1 109.6 167.9C100.8 184.6 95.7998 203.7 95.7998 224C95.7998 290.4 149.7 344.3 216.1 344.3C282.5 344.3 336.4 290.4 336.4 224C336.3 203.7 331.3 184.6 322.4 167.9ZM216 306.3C170.5 306.3 133.6 269.4 133.6 223.9C133.6 178.4 170.5 141.5 216 141.5C261.5 141.5 298.4 178.4 298.4 223.9C298.4 269.4 261.5 306.3 216 306.3Z" fill="white"/>
</svg>
