<svg width="432" height="432" viewBox="0 0 432 432" fill="none" xmlns="http://www.w3.org/2000/svg">
<path d="M216 432C335.294 432 432 335.294 432 216C432 96.7065 335.294 0 216 0C96.7065 0 0 96.7065 0 216C0 335.294 96.7065 432 216 432Z" fill="#9241CC"/>
<path d="M253.9 285.8C252.5 266.4 236.4 251.2 216.7 251.2C197 251.2 180.9 266.4 179.5 285.8C129.7 289.2 93.6001 299.4 93.6001 311.5C93.6001 326.4 148.4 338.4 216 338.4C283.6 338.4 338.4 326.4 338.4 311.5C338.5 299.4 303 289.3 253.9 285.8Z" fill="white"/>
<path d="M172.9 193.8C200.515 193.8 222.9 171.414 222.9 143.8C222.9 116.186 200.515 93.8 172.9 93.8C145.286 93.8 122.9 116.186 122.9 143.8C122.9 171.414 145.286 193.8 172.9 193.8Z" fill="white"/>
<path d="M267.4 236.4C284.576 236.4 298.5 222.476 298.5 205.3C298.5 188.124 284.576 174.2 267.4 174.2C250.224 174.2 236.3 188.124 236.3 205.3C236.3 222.476 250.224 236.4 267.4 236.4Z" fill="white"/>
</svg>
