<svg width="432" height="432" viewBox="0 0 432 432" fill="none" xmlns="http://www.w3.org/2000/svg">
<path d="M216 432C335.294 432 432 335.294 432 216C432 96.7065 335.294 0 216 0C96.7065 0 0 96.7065 0 216C0 335.294 96.7065 432 216 432Z" fill="#AEA981"/>
<path d="M320.6 169.7L262.3 111.4C260.9 110 259.1 109.3 257.2 109.3H174.8C172.9 109.3 171.1 110.1 169.7 111.4L111.4 169.7C110 171.1 109.3 172.9 109.3 174.8V257.2C109.3 259.1 110.1 260.9 111.4 262.3L169.7 320.6C171.1 322 172.9 322.7 174.8 322.7H257.2C259.1 322.7 260.9 321.9 262.3 320.6L320.6 262.3C322 260.9 322.7 259.1 322.7 257.2V174.8C322.7 172.9 321.9 171.1 320.6 169.7ZM252.1 129.5C281.9 130 298.5 144.9 299.9 176.3C300 177.6 298.4 178.3 297.4 177.4L251 132C250.2 131 250.8 129.5 252.1 129.5ZM202.7 305.7C149.5 304.1 124.6 276.3 124.4 225.7C124.4 224.4 126 223.8 126.9 224.7L203.8 303.2C204.7 304.2 204 305.7 202.7 305.7ZM229.3 305.7C228 305.7 227.3 304.2 228.2 303.2L305.1 224.7C306 223.8 307.6 224.4 307.6 225.7C307.4 276.3 282.5 304.1 229.3 305.7Z" fill="white"/>
</svg>
