<svg width="432" height="432" viewBox="0 0 432 432" fill="none" xmlns="http://www.w3.org/2000/svg">
<path d="M216 432C335.294 432 432 335.294 432 216C432 96.7065 335.294 0 216 0C96.7065 0 0 96.7065 0 216C0 335.294 96.7065 432 216 432Z" fill="#50413E"/>
<path d="M298.8 159.7C298.2 159.1 297.3 159.1 296.7 159.7C285 171.9 269.9 181.4 252.7 187C258.8 197.1 262.4 209.7 262.4 223.5C262.4 256.4 241.6 283.1 216 283.1C190.4 283.1 169.6 256.4 169.6 223.5C169.6 209.8 173.2 197.1 179.3 187C162.1 181.4 147 171.9 135.3 159.7C134.7 159.1 133.8 159.1 133.2 159.7C118.7 175.8 110 196.3 110 218.6C110 270.6 157.5 312.8 216.1 312.8C274.7 312.8 322.2 270.6 322.2 218.6C322 196.3 313.3 175.9 298.8 159.7Z" fill="white"/>
<path d="M216 192.4C211.9 192.4 207.8 192.2 203.9 191.9C203.3 191.9 202.8 192.1 202.5 192.7C199 199.5 196.9 208.8 196.9 219.1C196.9 239.7 205.5 256.4 216 256.4C226.5 256.4 235.1 239.7 235.1 219.1C235.1 208.8 233 199.4 229.5 192.7C229.2 192.2 228.7 191.9 228.1 191.9C224.1 192.2 220.1 192.4 216 192.4Z" fill="white"/>
</svg>
