<svg width="432" height="432" viewBox="0 0 432 432" fill="none" xmlns="http://www.w3.org/2000/svg">
<path d="M216 432C335.294 432 432 335.294 432 216C432 96.7065 335.294 0 216 0C96.7065 0 0 96.7065 0 216C0 335.294 96.7065 432 216 432Z" fill="#5160E1"/>
<path d="M260.7 162.3C259.1 137.4 253.1 115.4 243.3 95.6999C242.7 94.4999 240.9 94.6999 240.6 95.9999C236.4 115.1 231.8 131.5 226.6 144.8C223.1 144.2 219.6 143.9 216 143.9C212.4 143.9 208.8 144.2 205.4 144.8C200.2 131.5 195.6 115.1 191.4 95.9999C191.1 94.6999 189.3 94.4999 188.7 95.6999C178.9 115.4 172.9 137.4 171.3 162.3C158.2 175.1 149.9 193.4 149.9 213.7C149.9 239.1 162.8 261.4 182 273.6V303.2C182 321.9 197.3 337.1 215.9 337.1C234.6 337.1 249.8 321.8 249.8 303.2V273.6C269.1 261.4 281.9 239.2 281.9 213.7C282.1 193.4 273.9 175.1 260.7 162.3ZM194.2 254.6C186.3 253 174 246.9 171.9 243.9C165.3 236.8 161.4 221.2 163 203.3C163.7 195.2 166.6 199.3 168 201.8C178.6 221.4 188.5 238.2 196.9 250.2C198.4 252.3 196.6 255.1 194.2 254.6ZM260.2 243.9C258.1 246.9 245.8 253 237.9 254.6C235.5 255.1 233.8 252.3 235.2 250.2C243.6 238.2 253.5 221.4 264.1 201.8C265.5 199.3 268.4 195.2 269.1 203.3C270.7 221.2 266.7 236.8 260.2 243.9Z" fill="white"/>
<path d="M278 261.9C280.6 265.6 290.9 280.5 296.6 292.9C297 293.7 298 294 298.8 293.4C346.3 257.8 340.1 202.2 315.8 165C315 163.8 313.2 164.4 313.2 165.8C313.4 187.4 308.7 208.1 291.5 222.1C291.2 222.3 291 222.7 291 223C288.8 242.1 284 252.9 278.1 260.1C277.6 260.7 277.6 261.4 278 261.9Z" fill="white"/>
<path d="M154.1 261.9C151.5 265.6 141.2 280.5 135.5 292.9C135.1 293.7 134.1 294 133.3 293.4C85.7999 257.8 92 202.2 116.3 165C117.1 163.8 118.9 164.4 118.9 165.8C118.7 187.4 123.4 208.1 140.6 222.1C140.9 222.3 141.1 222.7 141.1 223C143.3 242.1 148.1 252.9 154 260.1C154.4 260.7 154.5 261.4 154.1 261.9Z" fill="white"/>
</svg>
