<svg width="432" height="432" viewBox="0 0 432 432" fill="none" xmlns="http://www.w3.org/2000/svg">
<path d="M216 432C335.294 432 432 335.294 432 216C432 96.7065 335.294 0 216 0C96.7065 0 0 96.7065 0 216C0 335.294 96.7065 432 216 432Z" fill="#EE70EE"/>
<path d="M310.7 141.6C310 139.5 308.3 137.9 306.1 137.3C270.8 128.2 237.7 141.7 215.9 173C194.1 141.7 161.1 128.2 125.7 137.3C123.5 137.9 121.8 139.5 121.1 141.6C105.7 189.3 129.2 217.1 162.6 232.9C148.9 244 146.6 257.7 149.4 272.7C149.6 273.5 150.1 274.2 150.9 274.6C167 281.4 184.9 282.7 195.9 270.9C188.9 298.3 183.8 319.8 186.9 326.5C191.5 336.4 215.2 279.7 215.9 269.7C216.6 279.7 240.2 336.3 244.9 326.5C248 319.8 242.9 298.3 235.9 270.9C246.9 282.6 264.7 281.4 280.9 274.6C281.7 274.3 282.3 273.6 282.4 272.7C285.3 257.8 282.9 244 269.2 232.9C302.6 217.1 326.1 189.3 310.7 141.6ZM216 231.1C199.2 231.1 187.2 220.7 184.4 212.3C210.2 212.7 216 188.3 216 188.3C216 188.3 221.7 212.7 247.6 212.3C244.8 220.6 232.8 231.1 216 231.1Z" fill="white"/>
</svg>
