<svg width="432" height="432" viewBox="0 0 432 432" fill="none" xmlns="http://www.w3.org/2000/svg">
<path d="M216 432C335.294 432 432 335.294 432 216C432 96.7065 335.294 0 216 0C96.7065 0 0 96.7065 0 216C0 335.294 96.7065 432 216 432Z" fill="#FF7F00"/>
<path d="M148.5 213.1H125.6C121.6 213.1 118.4 209.9 118.4 205.9V111.4C118.4 109.4 120 107.8 122 107.8H152.1C154.1 107.8 155.7 109.4 155.7 111.4V205.9C155.7 209.9 152.5 213.1 148.5 213.1Z" fill="white"/>
<path d="M201.1 213.1H178.2C174.2 213.1 171 209.9 171 205.9V111.4C171 109.4 172.6 107.8 174.6 107.8H204.7C206.7 107.8 208.3 109.4 208.3 111.4V205.9C208.3 209.9 205.1 213.1 201.1 213.1Z" fill="white"/>
<path d="M223.6 224V198C223.6 196 225.2 194.4 227.2 194.4H310C312 194.4 313.6 196 313.6 198V234.8C313.6 236.8 312 238.4 310 238.4H238C230 238.4 223.6 232 223.6 224Z" fill="white"/>
<path d="M257.3 179.8H227.2C225.2 179.8 223.6 178.2 223.6 176.2V111.4C223.6 109.4 225.2 107.8 227.2 107.8H257.3C259.3 107.8 260.9 109.4 260.9 111.4V176.2C260.9 178.2 259.3 179.8 257.3 179.8Z" fill="white"/>
<path d="M309.9 179.8H279.8C277.8 179.8 276.2 178.2 276.2 176.2V111.4C276.2 109.4 277.8 107.8 279.8 107.8H309.9C311.9 107.8 313.5 109.4 313.5 111.4V176.2C313.5 178.2 311.9 179.8 309.9 179.8Z" fill="white"/>
<path d="M227.9 252.8C217.6 252.8 209.2 244.4 209.2 234.1C209.2 232.3 207.7 230.9 206 230.9H122.1C120.1 230.9 118.5 232.5 118.5 234.5V277.6C118.5 278.7 119 279.7 119.9 280.4L164.8 316.3C174.7 324.2 188 326.3 199.9 321.9L311.3 280.2C312.7 279.7 313.6 278.3 313.6 276.8V256.1C313.6 254.3 312.1 252.9 310.4 252.9H227.9V252.8Z" fill="white"/>
</svg>
