<svg width="432" height="432" viewBox="0 0 432 432" fill="none" xmlns="http://www.w3.org/2000/svg">
<path d="M216 432C335.294 432 432 335.294 432 216C432 96.7065 335.294 0 216 0C96.7065 0 0 96.7065 0 216C0 335.294 96.7065 432 216 432Z" fill="#81B8EE"/>
<path d="M119.7 316.3C123.9 257.8 137.6 194.2 172.5 151.8C172.8 151.5 173.2 151.2 173.6 151.1L309.6 111.1C311.3 110.6 312.8 112.2 312.3 113.8C300.1 152.6 263.1 181.3 209.9 203.3L278.7 189.6C280.6 189.2 282 191.4 280.9 193C262.1 220.4 229.4 233.5 191.7 241.5L245.3 238.7C247.2 238.6 248.3 240.9 247 242.3C226.8 264.1 199.8 270.8 163.4 271.6L127.6 319.3C124.9 322.7 119.4 320.6 119.7 316.3Z" fill="white"/>
</svg>
