<svg width="432" height="432" viewBox="0 0 432 432" fill="none" xmlns="http://www.w3.org/2000/svg">
<path d="M216 432C335.294 432 432 335.294 432 216C432 96.7065 335.294 0 216 0C96.7065 0 0 96.7065 0 216C0 335.294 96.7065 432 216 432Z" fill="#704070"/>
<path d="M320.8 213.5C311.1 207.7 301.8 212.3 292.9 219.2C295.1 211.1 296.4 203.4 296.4 196.5C296.4 152.1 260.4 116.1 216 116.1C171.6 116.1 135.6 152.1 135.6 196.5C135.6 203.4 136.8 211.1 139 219.2C130.1 212.3 120.8 207.8 111.2 213.6C97.5999 222.8 90.6 239.6 94.4 254.9C95.1 257.6 98.4 258.5 100.4 256.5C104.2 252.8 107.1 250.2 112 248.5C120.6 246.7 116.7 267.4 131.8 274.7C144.9 275.8 153 267.9 157.1 260.9C174.5 290.8 198.8 316 216 316C232.8 316 257.2 290.6 274.8 260.6C278.8 267.7 287 275.8 300.3 274.6C315.4 267.3 311.5 246.6 320.1 248.4C325 250.1 327.9 252.7 331.7 256.4C333.7 258.3 337 257.4 337.7 254.8C341.4 239.5 334.4 222.7 320.8 213.5ZM193 204.2C185.7 207 175.8 198.9 170.9 186.2C166.1 173.5 168.1 160.9 175.4 158.1C182.7 155.3 192.6 163.4 197.5 176.1C202.4 188.8 200.4 201.4 193 204.2ZM261.1 186.2C256.3 198.9 246.4 207 239 204.2C231.7 201.4 229.6 188.8 234.5 176.1C239.4 163.4 249.2 155.3 256.6 158.1C263.9 160.9 265.9 173.5 261.1 186.2Z" fill="white"/>
</svg>
