<svg width="432" height="432" viewBox="0 0 432 432" fill="none" xmlns="http://www.w3.org/2000/svg">
<path d="M216 432C335.294 432 432 335.294 432 216C432 96.7065 335.294 0 216 0C96.7065 0 0 96.7065 0 216C0 335.294 96.7065 432 216 432Z" fill="#3FA12A"/>
<path d="M320.8 128.9C280.2 180.1 246.4 246.2 216.8 321.6C216.4 322.5 217.1 323.6 218.1 323.6H289.6C290.2 323.6 290.8 323.2 291 322.5C304.6 273.3 314.8 206.2 323.3 130C323.5 128.6 321.7 127.8 320.8 128.9Z" fill="white"/>
<path d="M197.6 298.7C238.4 244 257.9 171.6 255.9 81.3C255.9 80 254.2 79.4001 253.3 80.4001C238.3 98.0001 222.5 131.1 206 177.1C206 177.2 206 177.2 206 177.3C194.6 225.6 192 264.7 195 298C195.1 299.3 196.8 299.8 197.6 298.7Z" fill="white"/>
<path d="M86.8001 325.5H163.1C163.8 325.5 164.4 325 164.5 324.3C176.7 253.7 181.8 188.3 177.9 129.5C177.8 128.1 176 127.6 175.2 128.8C140.3 185.2 110.7 250.7 85.3001 323.5C85.2001 324.5 85.9001 325.5 86.8001 325.5Z" fill="white"/>
</svg>
