<svg width="432" height="432" viewBox="0 0 432 432" fill="none" xmlns="http://www.w3.org/2000/svg">
<path d="M216 432C335.294 432 432 335.294 432 216C432 96.7065 335.294 0 216 0C96.7065 0 0 96.7065 0 216C0 335.294 96.7065 432 216 432Z" fill="#3FD9FF"/>
<path d="M313.1 181.9V145.7C313.1 144.9 312.5 144.3 311.7 144.3H275.5C274.7 144.3 274.1 144.9 274.1 145.7V178L220.3 146.9L242.6 124.6C243.2 124 243.2 123.1 242.6 122.6L217 97C216.4 96.4 215.5 96.4 215 97L189.4 122.6C188.8 123.2 188.8 124.1 189.4 124.6L211.7 146.9L158.1 177.8V145.7C158.1 144.9 157.5 144.3 156.7 144.3H120.5C119.7 144.3 119.1 144.9 119.1 145.7V181.9C119.1 182.7 119.7 183.3 120.5 183.3H154.1V249.2C154.1 249.3 154.1 249.4 154.1 249.6H120.4C119.6 249.6 119 250.2 119 251V287.2C119 288 119.6 288.6 120.4 288.6H156.6C157.4 288.6 158 288 158 287.2V254L211.7 285L189.3 307.4C188.7 308 188.7 308.9 189.3 309.4L214.9 335C215.5 335.6 216.4 335.6 216.9 335L242.5 309.4C243.1 308.8 243.1 307.9 242.5 307.4L220.1 285L274 253.9V287.2C274 288 274.6 288.6 275.4 288.6H311.6C312.4 288.6 313 288 313 287.2V251C313 250.2 312.4 249.6 311.6 249.6H277.7C277.7 249.5 277.7 249.4 277.7 249.2V183.3H311.6C312.5 183.4 313.1 182.7 313.1 181.9ZM215.9 181.6L185.6 201.1C185.2 201.4 184.9 201.8 184.9 202.3V234.2C184.9 235 184.3 235.6 183.5 235.6H170.6C169.8 235.6 169.2 235 169.2 234.2V193.6L168.9 193.1L207.4 168.3C208.1 167.9 209 168.1 209.4 168.7L216.4 179.5C216.7 180.2 216.5 181.1 215.9 181.6Z" fill="white"/>
</svg>
