<svg width="432" height="432" viewBox="0 0 432 432" fill="none" xmlns="http://www.w3.org/2000/svg">
<path d="M216 432C335.294 432 432 335.294 432 216C432 96.7065 335.294 0 216 0C96.7066 0 0 96.7065 0 216C0 335.294 96.7066 432 216 432Z" fill="#60A1B7"/>
<path d="M219.6 242.5C219 240.6 217 239.5 215.1 240.1L128.6 265.7C127.4 266 127.2 267.6 128.2 268.3L213.8 328.1C214.3 328.5 215 328.4 215.5 328.1L238.9 310.7C239.4 310.3 239.6 309.7 239.4 309.1L219.6 242.5Z" fill="white"/>
<path d="M211.1 213.9L197.5 168.2C197.3 167.4 197.7 166.6 198.5 166.4L216.5 161.1H216.6L286.2 133.8C286.9 133.5 287.3 132.8 287.1 132.1L285 125C284.8 124.4 284.3 124 283.6 124H154.1C153.5 124 152.9 124.4 152.7 125L110.8 245.2C110.4 246.3 111.4 247.4 112.6 247.1L208.6 218.6C210.5 217.8 211.6 215.8 211.1 213.9ZM179.3 157.3C179.2 157.4 179.1 157.5 179 157.6C166.3 167.1 152 152.8 161.5 140.1C161.6 140 161.7 139.9 161.8 139.8C174.5 130.3 188.7 144.5 179.3 157.3Z" fill="white"/>
<path d="M321.2 248.1L294.2 156.5C294 155.7 293.1 155.3 292.3 155.6L228.3 180.7C226.6 181.4 225.6 183.3 226.2 185.1L258.4 293.7C258.7 294.7 259.8 295 260.6 294.4L320.7 249.7C321.2 249.3 321.4 248.7 321.2 248.1ZM278.9 212.5C278.8 212.6 278.7 212.7 278.6 212.8C260.9 226.1 241 206.2 254.2 188.4C254.3 188.3 254.4 188.2 254.5 188.1C272.3 174.8 292.2 194.7 278.9 212.5Z" fill="white"/>
</svg>
