<svg width="432" height="432" viewBox="0 0 432 432" fill="none" xmlns="http://www.w3.org/2000/svg">
<path d="M216 432C335.294 432 432 335.294 432 216C432 96.7065 335.294 0 216 0C96.7065 0 0 96.7065 0 216C0 335.294 96.7065 432 216 432Z" fill="#2981EF"/>
<path d="M281.2 231.8C281.2 231.7 281.1 231.6 281 231.5C251.4 179.8 235 140 219.4 96.0001C218.3 92.8001 213.8 92.8001 212.6 96.0001C197 140 180.6 179.8 151 231.5C150.9 231.6 150.9 231.7 150.8 231.8C119.9 299.3 179.7 339.2 216 338.3C252.2 339.3 312.1 299.3 281.2 231.8ZM270.9 284.9C260.5 302.6 242.1 318.4 215.6 320C215.3 320 215.9 320 215.6 320C193.3 319.3 173.4 306.5 162 286C160.1 282.5 163.5 278.5 167.3 279.9C198.7 291.7 235.6 290.5 265.5 278.7C269.4 277.2 273 281.3 270.9 284.9Z" fill="white"/>
</svg>
